<?xml version="1.0" encoding="utf-8"?>
<!-- Generator: Adobe Illustrator 27.7.0, SVG Export Plug-In . SVG Version: 6.00 Build 0)  -->
<svg version="1.1" id="Layer_1" xmlns="http://www.w3.org/2000/svg" xmlns:xlink="http://www.w3.org/1999/xlink" x="0px" y="0px"
	 viewBox="0 0 24 24" style="enable-background:new 0 0 24 24;" xml:space="preserve">
<style type="text/css">
	.st0{fill:#00897B;}
	.st1{fill:#B2DFDB;}
	.st2{fill:#424242;}
</style>
<path class="st0" d="M19,20H4c-1.1,0-2-0.9-2-2V6c0-1.1,0.9-2,2-2h6l2,2h7c1.1,0,2,0.9,2,2H4v10l2.1-8h17.1l-2.3,8.5
	C20.7,19.4,19.9,20,19,20z"/>
<path class="st1" d="M10.3,19c0-1,0-1.8,0-1.8l0-0.1l0.6,0c0.3,0,0.6,0,0.6,0c0,0,0-0.5,0-1c0-0.8,0-1,0-1.1
	c0.1-0.4,0.4-0.7,0.9-0.9c0.1,0,0.5,0,2,0l2,0l0-0.9l0-0.9h-1.2V8.5h3.7v3.7h-1.2V14l2,0c2.2,0,2,0,2.3,0.2c0.2,0.1,0.2,0.1,0.3,0.3
	c0.1,0.2,0.2,0.4,0.2,0.6c0,0.1,0,0.6,0,1.1v0.9h1.2v3.6h-3.7l0-3.7h0.6c0.3,0,0.6,0,0.6,0l0,0v-1.8h-3.7v1.8h1.2v3.7h-3.7v-3.7h0.6
	c0.3,0,0.6,0,0.6,0l0,0v-1.8h-3.7v1.8h1.2v3.7h-3.6L10.3,19z"/>
<path class="st2" d="M14.2,16.7c0.8,0,1.4,0.6,1.4,1.4s-0.6,1.4-1.4,1.4c-0.8,0-1.4-0.6-1.4-1.4S13.4,16.7,14.2,16.7z M16,17.1
	c-0.6-1-1.9-1.4-2.9-0.8c-0.6,0.3-1,0.9-1.1,1.5h-0.3c-0.2,0-0.4,0.2-0.4,0.4s0.2,0.4,0.4,0.4h0.4c0.2,1.2,1.3,1.9,2.4,1.7
	c1-0.2,1.8-1.1,1.8-2.1c0-0.4,0.3-0.7,0.7-0.7s0.7,0.3,0.7,0.7c0,1.2,0.9,2.1,2.1,2.1c1,0,1.9-0.7,2.1-1.8h0.4
	c0.2,0,0.4-0.2,0.4-0.4s-0.2-0.4-0.4-0.4h-0.4c-0.2-1.2-1.3-1.9-2.4-1.7c-0.6,0.1-1.2,0.5-1.5,1.1c-0.3-0.2-0.6-0.4-1-0.4
	C16.6,16.7,16.3,16.9,16,17.1z M21.2,18.2c0,0.8-0.6,1.4-1.4,1.4s-1.4-0.6-1.4-1.4s0.6-1.4,1.4-1.4S21.2,17.4,21.2,18.2z"/>
</svg>
